<?xml version="1.0"?>
<svg xmlns:rdf="http://www.w3.org/1999/02/22-rdf-syntax-ns#" xmlns="http://www.w3.org/2000/svg" xmlns:cc="http://web.resource.org/cc/" xmlns:xlink="http://www.w3.org/1999/xlink" xmlns:dc="http://purl.org/dc/elements/1.1/" xmlns:svg="http://www.w3.org/2000/svg" id="svg2" viewBox="0 0 306 617" version="1.0">
  <defs id="defs61">
    <linearGradient id="XMLID_3_" y2="17.24" gradientUnits="userSpaceOnUse" x2="145.46" y1="387.26" x1="145.46">
      <stop id="stop26" stop-color="#7ffcff" offset="0"/>
      <stop id="stop28" stop-color="#7fd3ff" offset="1"/>
    </linearGradient>
    <linearGradient id="XMLID_4_" y2="361.13" gradientUnits="userSpaceOnUse" x2="142.08" y1="583.85" x1="142.08">
      <stop id="stop33" stop-color="#10007f" offset="0"/>
      <stop id="stop35" stop-color="#009f5d" offset="1"/>
    </linearGradient>
    <linearGradient id="XMLID_5_" y2="36.173" gradientUnits="userSpaceOnUse" x2="92.119" y1="87.985" x1="92.119">
      <stop id="stop40" stop-color="#d3d3d3" offset="0"/>
      <stop id="stop42" stop-color="#eaeaea" offset="1"/>
    </linearGradient>
    <linearGradient id="XMLID_6_" y2="138.75" gradientUnits="userSpaceOnUse" x2="231.64" y1="205.88" x1="231.64">
      <stop id="stop47" stop-color="#d3d3d3" offset="0"/>
      <stop id="stop49" stop-color="#eaeaea" offset="1"/>
    </linearGradient>
    <linearGradient id="XMLID_7_" y2="144.78" gradientUnits="userSpaceOnUse" x2="50.223" y1="195.06" x1="50.223">
      <stop id="stop54" stop-color="#d3d3d3" offset="0"/>
      <stop id="stop56" stop-color="#eaeaea" offset="1"/>
    </linearGradient>
    <filter id="filter3302">
      <feGaussianBlur id="feGaussianBlur3304" stdDeviation="10.7609"/>
    </filter>
  </defs>
  <g id="g3306">
    <g id="g2329" opacity=".5" filter="url(#filter3302)" transform="translate(13.021 6.714)">
      <path id="path2331" fill-rule="evenodd" d="m8.416 591.06c0.538-72.93 2.076-125.1 5.15-157.32 3.612-32.22 8.686-57.54 16.371-75.98 8.148-19.95 22.521-36.78 41.967-52.17 19.908-14.58 56.186-32.94 109.92-55.22v-138.88h-70.56c-0.46 39.59-1 79.26-1.54 118.93-32.358-0.72-64.718-1.52-97.153-2.33-0.538-11.54-1.076-22.2-1.076-30.69-0.461-9.22-0.461-16.11-0.461-22.2 0-26.13 1.537-45.28 5.073-57.62 3.612-12.26 10.224-26.05 19.446-41.436 14.834-23.001 31.206-40.632 49.652-51.372 18.909-10.74 40.889-16.108 66.949-16.108 41.43 0 73.63 16.108 96.61 49.127 23.06 32.938 34.28 79.739 34.28 139.61 0 43.76-7.14 79.02-21.44 105.87-14.37 26.85-38.89 49.93-74.17 69.88-16.91 9.94-34.28 18.36-52.19 26.05-17.91 8.41-27.06 12.26-28.13 13.06-1 1.53-2 3.05-3 6.09-0.54 3.13-1.08 9.22-1.08 18.44v25.32c5.15 0.8 11.3 0.8 18.45 0.8h31.67c27.13 0 51.11-0.8 71.63-2.32 20.45-1.52 38.36-3.85 53.19-7.7-1.07 16.92-2.07 33.74-3.07 50.65-0.54 16.92-1.08 33.83-1.08 49.85v16.91c0.54 6.18 0.54 14.59 1.08 24.61-40.43-3.13-71.64-5.37-93.62-6.98-22.52-0.71-41.89-1.52-59.34-1.52-16.29 0-34.201 0-52.649 0.81-18.908 1.52-39.353 2.32-60.875 3.84z"/>
    </g>
    <g id="g21">
      <path id="path23" fill-rule="evenodd" d="m8.416 591.06c0.538-72.93 2.076-125.1 5.15-157.32 3.612-32.22 8.686-57.54 16.371-75.98 8.148-19.95 22.521-36.78 41.967-52.17 19.908-14.58 56.186-32.94 109.92-55.22v-138.88h-70.56c-0.46 39.59-1 79.26-1.54 118.93-32.358-0.72-64.718-1.52-97.153-2.33-0.538-11.54-1.076-22.2-1.076-30.69-0.461-9.22-0.461-16.11-0.461-22.2 0-26.13 1.537-45.28 5.073-57.62 3.612-12.26 10.224-26.05 19.446-41.436 14.834-23.001 31.206-40.632 49.652-51.372 18.909-10.74 40.889-16.108 66.949-16.108 41.43 0 73.63 16.108 96.61 49.127 23.06 32.938 34.28 79.739 34.28 139.61 0 43.76-7.14 79.02-21.44 105.87-14.37 26.85-38.89 49.93-74.17 69.88-16.91 9.94-34.28 18.36-52.19 26.05-17.91 8.41-27.06 12.26-28.13 13.06-1 1.53-2 3.05-3 6.09-0.54 3.13-1.08 9.22-1.08 18.44v25.32c5.15 0.8 11.3 0.8 18.45 0.8h31.67c27.13 0 51.11-0.8 71.63-2.32 20.45-1.52 38.36-3.85 53.19-7.7-1.07 16.92-2.07 33.74-3.07 50.65-0.54 16.92-1.08 33.83-1.08 49.85v16.91c0.54 6.18 0.54 14.59 1.08 24.61-40.43-3.13-71.64-5.37-93.62-6.98-22.52-0.71-41.89-1.52-59.34-1.52-16.29 0-34.201 0-52.649 0.81-18.908 1.52-39.353 2.32-60.875 3.84z"/>
    </g>
    <path id="path30" fill-rule="evenodd" fill="url(#XMLID_3_)" d="m160.45 378.12l31.05-16.99c35.28-19.95 52.58-46.56 66.87-73.41 14.37-26.85 15.68-42.56 15.68-86.31 0-59.87-11.3-106.67-34.28-139.61-23.06-33.02-42.04-44.56-83.47-44.56-26.06 0-46.35 0.481-65.256 11.22-18.447 10.738-34.818 28.369-49.576 51.37-9.225 15.388-15.913 29.17-19.447 41.43-3.613 12.27-5.149 31.5-5.149 57.55 0 6.17 0 13.06 0.537 22.28 0 8.41-0.152 7.77 0.385 19.31h83.316c0.46-39.99 1-80.06 1.54-120.13 29.21 2.08 58.41 4.16 87.7 6.33-0.85 49.13-1.77 98.25-2.69 147.46-53.65 22.2-90.006 40.63-109.91 55.22-19.451 15.31-35.359 41.67-43.508 61.63l-0.154 16.35 126.36-9.14z"/>
    <path id="path37" fill-rule="evenodd" fill="url(#XMLID_4_)" d="m191.5 361.13c-9.07 4.73-16.6 8.25-22.6 10.26-6.22 1.92-10.22 3.29-13.76 1.92-3.61-1.44-6.07-4.89-7.68-10.33-10.45 10.17-18.29 15.14-24.75 15.54-6.23 0.24-10.76-4.4-12.99-13.94-0.62 4-3.15 7.29-7.3 9.54-4.383 2-12.531 4.88-17.91 4-5.459-1.04-9.762-4-13.761-9.54-3.841 4.49-7.454 7.78-11.451 9.54s-8.071 2.16-12.223 1.2c-4.304-1.28-8.377-4.08-12.835-8.41-7.686 18.43-9.3 36.3-12.913 68.52-3.075 32.3-9.223 67.32-9.685 140.17 21.446-1.52 41.89-2.32 60.874-3.84 18.371-0.73 36.284-0.73 52.654-0.73 17.37 0 36.81 0.73 59.26 1.52 22.06 1.52 42.96 4.25 83.39 7.29-0.54-9.93-4.22-12.17-4.68-18.35 0-6.09 2.3-31.33 2.3-36.7 0-16.11 1.85-16.11 2.38-33.02 1-16.91 3.62-13.7 4.69-30.61-14.83 3.84-24.13 1.04-44.65 2.56-20.45 1.52-44.43 2.32-71.56 2.32h-31.67c-7.23 0-24.21 2.01-29.361 1.2 0-2.32-1.151-12.82-1.151-15.86 0-2.33-1.077-18.12-1.077-22.76v-5.37c0-9.22 2.921-11.62 3.382-14.75 1.077-3.05-0.999-4.57 0-6.09 1.077-0.72 17.297-3.85 35.207-12.26 17.9-7.69 43.04-23.08 59.87-33.02z"/>
    <path id="path44" fill-rule="evenodd" fill="url(#XMLID_5_)" d="m82 37.514c6.532-2.244 3.201-1.281 8.196-0.16 4.919 0.882 9.377 3.606 12.764 7.854 4.15-2.245 8.68-3.206 13.91-2.886 5.3 0.161 12.99 1.443 17.14 4.167 3.92 2.645 5.99 8.174 5.92 11.622-0.23 3.286-2.85 5.69-7.53 7.854 4.84-0.642 7.68 0.081 9.14 2.485 1.31 2.404 2.38 9.776-1.23 11.62-3.92 1.683-14.29 0.722-21.06-1.602-6.76-2.566-13.14-6.894-19.14-13.305-1.304 9.698-3.686 16.109-7.145 19.875-3.766 3.367-8.991 3.928-13.912 1.684-4.995-2.324-10.068-7.453-15.524-15.387-2.386 6.251-4.996 10.258-8.764 11.7-3.688 1.283-8.226 0.321-13.296-3.206 4.612-8.575 9.528-16.349 14.758-23.001 5.146-6.891 15.006-13.651 20.773-18.619l5-0.695z"/>
    <path id="path51" fill-rule="evenodd" fill="url(#XMLID_6_)" d="m269.67 140.04c-5-2.16-5.23-1.22-9.15-0.18-3.92 0.88-7.45 3.6-10.3 7.85-4.38-1.68-9.3-2.32-14.76-1.6-5.76 0.56-12.83 1.84-18.29 5.37-5.45 3.36-9.99 8.33-13.91 14.9l-13.99-2.88-0.38 33.58c5.22 3.53 9.91 5.13 14.37 4.17 4.3-1.05 8.38-4.01 11.91-9.54 2.92 3.93 6.92 6.01 12.3 6.25 5.23 0.16 11.84-1.76 19.52-5.45-0.61 6.65 1.39 10.58 6 12.1 4.53 1.45 11.73 2.38 21.34-1.31l-0.28-1.89c1.07-4.65-0.72-12.5-0.72-22.44 0-10.1-2.59-23.38-3.66-38.93z"/>
    <path id="path58" fill-rule="evenodd" fill="url(#XMLID_7_)" d="m16.871 152.76c2.689-4.09 5.765-6.89 9.222-7.53 3.536-1.13 7.842-0.08 11.146 2.48 2.998 2.49 5.15 7.13 6.764 13.31 8.687-7.3 14.912-10.1 19.524-8.74 4.378 1.28 6.764 6.81 7.147 16.59 7.225-1.92 11.376-1.6 12.758 1.28 1.153 2.65-1.92 12.18-4.764 15.31-3.153 2.96-8.764 4.01-12.377 2.48-3.534-1.84-6.685-6.25-9.145-13.22-2.231 9.14-4.996 13.86-8.303 14.51-3.457 0.56-7.456-3.29-11.989-11.22 0.613 8.09-0.617 13.46-3.999 15.78-3.382 2.33-8.606 1.69-15.985-1.92-0.077-2.08-0.077-6.73 0-13.06-0.076-6.82-0.076-14.99 0.001-26.05z"/>
  </g>
  <metadata>
    <rdf:RDF>
      <cc:Work>
        <dc:format>image/svg+xml</dc:format>
        <dc:type rdf:resource="http://purl.org/dc/dcmitype/StillImage"/>
        <cc:license rdf:resource="http://creativecommons.org/licenses/publicdomain/"/>
        <dc:publisher>
          <cc:Agent rdf:about="http://openclipart.org/">
            <dc:title>Openclipart</dc:title>
          </cc:Agent>
        </dc:publisher>
        <dc:title>Creation Days Numbers</dc:title>
        <dc:date>2007-11-13T16:32:45</dc:date>
        <dc:description>The days of creation - completed originally to fulfill a request on the OpenClipart wiki.</dc:description>
        <dc:source>http://openclipart.org/detail/8221/creation-days-numbers-by-gerald_g-8221</dc:source>
        <dc:creator>
          <cc:Agent>
            <dc:title>Gerald_G</dc:title>
          </cc:Agent>
        </dc:creator>
        <dc:subject>
          <rdf:Bag>
            <rdf:li>adam</rdf:li>
            <rdf:li>cartoon</rdf:li>
            <rdf:li>clip art</rdf:li>
            <rdf:li>clipart</rdf:li>
            <rdf:li>creation</rdf:li>
            <rdf:li>eve</rdf:li>
            <rdf:li>god</rdf:li>
            <rdf:li>number</rdf:li>
            <rdf:li>religion</rdf:li>
          </rdf:Bag>
        </dc:subject>
      </cc:Work>
      <cc:License rdf:about="http://creativecommons.org/licenses/publicdomain/">
        <cc:permits rdf:resource="http://creativecommons.org/ns#Reproduction"/>
        <cc:permits rdf:resource="http://creativecommons.org/ns#Distribution"/>
        <cc:permits rdf:resource="http://creativecommons.org/ns#DerivativeWorks"/>
      </cc:License>
    </rdf:RDF>
  </metadata>
</svg>
