<?xml version="1.0"?>
<svg xmlns:rdf="http://www.w3.org/1999/02/22-rdf-syntax-ns#" xmlns="http://www.w3.org/2000/svg" xmlns:cc="http://web.resource.org/cc/" xmlns:xlink="http://www.w3.org/1999/xlink" xmlns:dc="http://purl.org/dc/elements/1.1/" xmlns:svg="http://www.w3.org/2000/svg" id="svg2" viewBox="0 0 273 617" version="1.0">
  <defs id="defs54">
    <linearGradient id="XMLID_3_" y2="584.99" gradientUnits="userSpaceOnUse" x2="127.47" y1="20.009" x1="127.47">
      <stop id="stop24" stop-color="#fcffdf" offset="0"/>
      <stop id="stop26" offset="1"/>
    </linearGradient>
    <linearGradient id="XMLID_4_" y2="409.58" gradientUnits="userSpaceOnUse" x2="199.68" y1="185.17" x1="199.68">
      <stop id="stop33" stop-color="#f6ff3f" offset="0"/>
      <stop id="stop35" stop-color="#363f00" offset="1"/>
    </linearGradient>
    <linearGradient id="XMLID_5_" y2="418.38" gradientUnits="userSpaceOnUse" x2="148.61" y1="132.25" x1="148.61">
      <stop id="stop40" stop-color="#f6ff3f" offset="0"/>
      <stop id="stop42" stop-color="#363f00" offset="1"/>
    </linearGradient>
    <linearGradient id="XMLID_6_" y2="437.52" gradientUnits="userSpaceOnUse" x2="127.63" y1="163.88" x1="127.63">
      <stop id="stop47" stop-color="#f6ff3f" offset="0"/>
      <stop id="stop49" stop-color="#363f00" offset="1"/>
    </linearGradient>
    <filter id="filter3347" y="-.042342" width="1.2058" x="-.10292" height="1.0847">
      <feGaussianBlur id="feGaussianBlur3349" stdDeviation="10.354688"/>
    </filter>
  </defs>
  <g id="g3351" fill-rule="evenodd">
    <path id="path2287" opacity=".5" filter="url(#filter3347)" d="m79.191 593.51c7.526-90.31 15.052-180.62 22.579-270.92 2-61.09 4.08-122.17 6.16-183.26-27.937-1.76-55.878-3.6-83.82-5.44 3.363-30.27 6.726-60.529 10.088-90.792 53.56-3.923 99.352-7.765 137.38-11.688 38.83-4.643 69.89-9.288 93.99-14.731-6.24 41.15-10.89 88.541-14.73 140.5-3.12 52.04-4.64 107.2-4.64 166.13v33.46c0.72 82.22 1.52 164.52 2.32 246.82-56.44-3.36-112.89-6.72-169.33-10.08z"/>
    <path id="path21" d="m63.662 584.83c7.526-90.31 15.052-180.61 22.578-270.92 2.001-61.09 4.083-122.17 6.165-183.26-27.941-1.76-55.882-3.6-83.824-5.44 3.363-30.265 6.726-60.528 10.088-90.791 53.56-3.923 99.351-7.765 137.38-11.688 38.83-4.643 69.89-9.288 93.99-14.731-6.24 41.15-10.89 88.545-14.73 140.5-3.12 52.04-4.64 107.2-4.64 166.13v33.46c0.72 82.23 1.52 164.53 2.32 246.83-56.44-3.37-112.89-6.73-169.33-10.09z"/>
    <path id="path28" fill="url(#XMLID_3_)" d="m92.564 323.03l128.5 7.29c-0.16 10.97-0.32 21.94-0.4 32.9 1.28 73.98 2.48 147.88 3.68 221.77-49.95-4.33-99.83-8.65-149.71-12.89 6.005-83.02 12.009-166.04 17.934-249.07zm128.5 7.29c0-59 1.6-114.16 4.72-166.12 3.85-52.04 4.89-103.12 11.05-144.19-24.02 5.362-35.54 7.204-74.37 11.847-38.03 3.924-83.826 7.767-137.39 11.688-2.317 24.418-4.639 48.837-6.961 73.255 27.06 0.88 54.121 1.76 81.181 2.72-2.242 67.81-4.483 135.62-6.725 203.51l128.5 7.29z"/>
    <path id="path30" stroke="#000" stroke-width=".036" stroke-miterlimit="10" d="m74.63 572.1l149.71 12.89 0.24-121.93c-33.22 4-59.96 11.77-81.42 23.3-21.7 11.52-35.07 31.06-46.595 45.63-11.527 14.41-18.733 27.38-21.935 40.11z"/>
    <path id="path37" fill="url(#XMLID_4_)" d="m202 389.32c1.69-26.26 3.93-55 6.73-88.06 2.56-33.15 5.69-68.53 9.37-108.32l-36.83-7.77c4.16 27.14 7.45 53.08 9.85 78.78 2.16 25.22 3.44 49.8 4.16 74.05 0.48 24.42 0.4 47.88-0.56 71.58 2.4-6.72 4.8-13.45 7.28-20.26z"/>
    <path id="path44" fill="url(#XMLID_5_)" d="m183.83 400.21c-1.28-27.14-3.04-55.24-6.16-85.5-3.28-30.42-7.37-65.81-11.93-95.35-4.49-29.78-9.61-56.68-15.05-81.9l-37.31-5.21c10.41 24.42 19.29 50.28 26.98 78.78 7.52 28.42 13.13 55.88 18.65 90.71 5.53 34.98 10.25 72.93 14.49 116.64 3.45-6 6.89-12.08 10.33-18.17z"/>
    <path id="path51" fill="url(#XMLID_6_)" d="m161.1 404.94c-6.17-46.04-14.26-88.07-24.9-128.58-10.65-40.67-23.22-77.34-38.352-112.48l-3.682 98.47c16.574 42.99 28.904 78.22 37.304 107.84 8.41 29.38 12.25 51.32 12.49 67.33 5.69-10.81 11.37-21.7 17.14-32.58z"/>
  </g>
  <metadata>
    <rdf:RDF>
      <cc:Work>
        <dc:format>image/svg+xml</dc:format>
        <dc:type rdf:resource="http://purl.org/dc/dcmitype/StillImage"/>
        <cc:license rdf:resource="http://creativecommons.org/licenses/publicdomain/"/>
        <dc:publisher>
          <cc:Agent rdf:about="http://openclipart.org/">
            <dc:title>Openclipart</dc:title>
          </cc:Agent>
        </dc:publisher>
        <dc:title>Creation Days Numbers</dc:title>
        <dc:date>2007-11-13T16:32:45</dc:date>
        <dc:description>The days of creation - completed originally to fulfill a request on the OpenClipart wiki.</dc:description>
        <dc:source>http://openclipart.org/detail/8220/creation-days-numbers-by-gerald_g-8220</dc:source>
        <dc:creator>
          <cc:Agent>
            <dc:title>Gerald_G</dc:title>
          </cc:Agent>
        </dc:creator>
        <dc:subject>
          <rdf:Bag>
            <rdf:li>adam</rdf:li>
            <rdf:li>cartoon</rdf:li>
            <rdf:li>clip art</rdf:li>
            <rdf:li>clipart</rdf:li>
            <rdf:li>creation</rdf:li>
            <rdf:li>eve</rdf:li>
            <rdf:li>god</rdf:li>
            <rdf:li>number</rdf:li>
            <rdf:li>religion</rdf:li>
          </rdf:Bag>
        </dc:subject>
      </cc:Work>
      <cc:License rdf:about="http://creativecommons.org/licenses/publicdomain/">
        <cc:permits rdf:resource="http://creativecommons.org/ns#Reproduction"/>
        <cc:permits rdf:resource="http://creativecommons.org/ns#Distribution"/>
        <cc:permits rdf:resource="http://creativecommons.org/ns#DerivativeWorks"/>
      </cc:License>
    </rdf:RDF>
  </metadata>
</svg>
