<?xml version="1.0"?>
<svg xmlns:rdf="http://www.w3.org/1999/02/22-rdf-syntax-ns#" xmlns="http://www.w3.org/2000/svg" xmlns:cc="http://web.resource.org/cc/" xmlns:xlink="http://www.w3.org/1999/xlink" xmlns:dc="http://purl.org/dc/elements/1.1/" xmlns:svg="http://www.w3.org/2000/svg" id="svg2" viewBox="0 0 377 613" version="1.0">
  <defs id="defs210">
    <linearGradient id="XMLID_3_" y2="223.91" gradientUnits="userSpaceOnUse" x2="163.05" y1="16.667" x1="199.59">
      <stop id="stop26" stop-color="#5fe5ff" offset="0"/>
      <stop id="stop28" stop-color="#007f6f" offset="1"/>
    </linearGradient>
    <linearGradient id="XMLID_4_" y2="179.24" gradientUnits="userSpaceOnUse" x2="181.1" y1="583.15" x1="181.1">
      <stop id="stop39" stop-color="#009f2f" offset="0"/>
      <stop id="stop41" stop-color="#9fffb1" offset="1"/>
    </linearGradient>
    <linearGradient id="XMLID_5_" y2="187.34" gradientUnits="userSpaceOnUse" x2="333.18" y1="120.46" x1="266.31">
      <stop id="stop104" stop-color="#00ff0c" offset="0"/>
      <stop id="stop106" stop-color="#007f33" offset="1"/>
    </linearGradient>
    <linearGradient id="XMLID_6_" y2="293.89" gradientUnits="userSpaceOnUse" x2="203.89" y1="235.11" x1="145.1">
      <stop id="stop115" stop-color="#00ff0c" offset="0"/>
      <stop id="stop117" stop-color="#007f33" offset="1"/>
    </linearGradient>
    <filter id="filter3747">
      <feGaussianBlur id="feGaussianBlur3749" stdDeviation="11.592037"/>
    </filter>
  </defs>
  <g id="g3751">
    <g id="g2774" opacity=".5" filter="url(#filter3747)" transform="translate(11.506 5.376)">
      <path id="path2776" fill-rule="evenodd" d="m9.578 404.19c43.623 1.18 87.245 2.35 130.87 3.6-1.63 15.8-3.25 31.68-4.87 47.56h89.87c-1.54-24.64-3.09-49.36-4.71-74.07-31.73-3.37-63.46-6.73-95.27-10.17 1.47-44.35 3.01-88.7 4.55-133.13h73.04c1.93-21.51 3.86-43.02 5.87-64.53-28.49-3.13-57.06-6.25-85.62-9.38 0.23 18.22 0.54 36.45 0.85 54.75-37.992-3.84-75.977-7.75-113.96-11.66 0.615-63.98 15.052-112.71 44.005-146.89 28.953-34.179 69.955-51.622 123.68-51.622 50.05 0 88.65 14.548 116.37 44.349 27.79 29.801 41.61 72.043 41.61 125.77 0 29.1-6.02 52.41-18.07 69.85-11.42 16.74-32.58 31.99-62.15 45.05 32.58 8.76 57.37 24.72 73.58 46.54 16.29 22.53 24.79 50.92 24.79 85.8 0 49.44-16.29 89.41-48.26 119.21-31.97 30.58-75.43 45.13-129.09 45.13-58.53 0-100.76-12.36-127.86-38.56-27.179-25.42-40.457-65.39-40.457-119.99v-10.16c0-3.6 0.616-9.47 1.235-17.45z"/>
    </g>
    <g id="g21">
      <path id="path23" fill-rule="evenodd" d="m9.578 404.19c43.623 1.18 87.245 2.35 130.87 3.6-1.63 15.8-3.25 31.68-4.87 47.56h89.87c-1.54-24.64-3.09-49.36-4.71-74.07-31.73-3.37-63.46-6.73-95.27-10.17 1.47-44.35 3.01-88.7 4.55-133.13h73.04c1.93-21.51 3.86-43.02 5.87-64.53-28.49-3.13-57.06-6.25-85.62-9.38 0.23 18.22 0.54 36.45 0.85 54.75-37.992-3.84-75.977-7.75-113.96-11.66 0.615-63.98 15.052-112.71 44.005-146.89 28.953-34.179 69.955-51.622 123.68-51.622 50.05 0 88.65 14.548 116.37 44.349 27.79 29.801 41.61 72.043 41.61 125.77 0 29.1-6.02 52.41-18.07 69.85-11.42 16.74-32.58 31.99-62.15 45.05 32.58 8.76 57.37 24.72 73.58 46.54 16.29 22.53 24.79 50.92 24.79 85.8 0 49.44-16.29 89.41-48.26 119.21-31.97 30.58-75.43 45.13-129.09 45.13-58.53 0-100.76-12.36-127.86-38.56-27.179-25.42-40.457-65.39-40.457-119.99v-10.16c0-3.6 0.616-9.47 1.235-17.45z"/>
    </g>
    <path id="path30" fill-rule="evenodd" fill="url(#XMLID_3_)" d="m323.89 179.24c0-53.81-15.82-94.173-43.54-123.97-27.72-29.805-58.37-39.426-108.4-39.426-53.66 0-81.149 16.269-110.1 50.45-28.956 34.186-42.004 68.286-42.545 132.27 32.043 2.74 64.085 5.55 96.125 8.37v-51.39c33.9 3.99 67.79 7.98 101.76 11.97-0.77 12.75-1.54 25.5-2.32 38.25l21.39 9.54 64.63-11.74 23-24.32z"/>
    <path id="path32" fill-rule="evenodd" d="m112.73 112.13c15.75 3.52 29.11 4.54 40.07 3.91 10.89-0.7 19.3-3.91 25.56-8.76 0.92 5.48 4.47 8.29 10.65 8.76 6.1 0.16 14.67-1.56 26.02-6.34 2.55 2.9 5.87 4.54 10.58 4.93 4.55 0.39 10.19-0.7 16.91-2.97-7.11 5.16-12.9 8.21-17.38 8.84-4.63 0.62-7.64-1.02-9.65-4.93-11.73 4.22-20.69 6.41-27.48 6.88-6.8 0.32-11.04-1.17-13.05-4.45-10.35 3.91-20.54 5.39-30.88 4.45-10.51-1.01-20.85-4.45-31.35-10.32z"/>
    <path id="path34" fill-rule="evenodd" d="m171.64 82.016c11.73 2.502 21.85 3.598 30.04 2.972 8.33-0.704 14.35-2.816 19.22-6.648 0.77 4.146 3.32 6.258 7.95 6.648 4.63 0.234 11.04-1.25 19.53-4.771 1.86 2.112 4.64 3.441 8.03 3.676 3.4 0.157 7.73-0.469 12.67-2.19-5.41 3.911-9.65 6.1-13.05 6.571-3.48 0.468-5.79-0.861-7.26-3.676-8.88 3.05-15.44 4.771-20.61 5.162-5.18 0.234-8.34-0.86-9.81-3.286-7.87 2.894-15.29 3.989-23.17 3.286-7.79-0.783-15.74-3.364-23.54-7.744z"/>
    <path id="path36" fill-rule="evenodd" d="m134.42 56.361c6.26 1.173 11.2 1.876 15.68 1.486 4.17-0.47 7.49-1.408 9.96-3.442 0.31 2.034 1.7 3.285 4.17 3.442 2.31 0.156 5.79-0.783 10.11-2.504 0.85 1.173 2.24 1.721 4.17 1.957 1.7 0 4.02-0.392 6.64-1.173-2.86 1.955-5.02 3.207-6.79 3.441-1.86 0.234-3.02-0.392-3.79-1.878-4.63 1.643-8.1 2.425-10.73 2.66-2.7 0.079-4.4-0.391-5.09-1.721-4.1 1.33-8.11 2.19-12.05 1.721-4.17-0.469-8.26-1.799-12.28-3.989z"/>
    <path id="path43" fill-rule="evenodd" fill="url(#XMLID_4_)" d="m214.87 205.76l-5.94 39.42h-72.96c-0.7 39.57-1.47 79.15-2.24 118.81 31.73 3.36 63.47 6.73 95.28 10.17 1.54 28.63 3.08 57.25 4.71 85.96-35.37-0.39-70.73-0.78-106.09-1.18 1.39-15.4 2.78-30.81 4.25-46.3-38.223-0.78-76.44-1.64-114.66-2.5-0.616 8.05-1.232 13.84-1.232 17.44v10.24c0 54.52 14.282 81.66 41.461 107.08 27.098 26.21 60.611 38.25 119.05 38.25 53.66 0 89.49-8.52 121.45-39.11 31.97-29.8 48.26-69.77 48.26-119.2 0-34.96-9.88-56.86-26.17-79.39-16.3-21.82-49.88-40.2-82.46-48.96 29.57-13.07 56.82-30.74 68.25-47.48 12.04-17.45 18.06-40.67 18.06-69.77-7.25 5.71-14.43 8.92-22 9.62-7.64 0.7-15.44-6.26-23.16-5.32-7.8 1.02-16.45 9.46-23.17 11.19-6.71 1.72-10.11-2.74-16.9-0.94-6.88 1.87-14.68 5.79-23.79 11.97z"/>
    <path id="path45" fill-rule="evenodd" fill="#ede9b0" d="m17.221 409.9l67.173 1.8c-1.389 10.64-4.17 20.26-8.958 29.18-4.938 8.76-10.267 17.36-19.532 24.01-9.342 6.41-21.233 11.57-35.979 15.17-2.009-10.24-3.707-19.86-4.247-29.17-0.773-9.54-0.386-19.87 0-26.75 0.154-7.04 0.77-11.5 1.543-14.24z"/>
    <path id="path47" fill-rule="evenodd" fill="#c080ff" d="m19.615 479.2c-0.541 2.35 0.463 6.89 3.012 13.61 2.471 6.65 7.257 18.38 11.967 26.44 4.554 7.9 10.347 14.39 15.905 20.42 5.326 5.71 11.04 10.16 16.831 13.68 3.012 0.86 5.714 0.24 8.415-1.87 2.547-2.27 7.721-5.32 7.18-10.96-1.08-5.7-5.094-14-11.734-23.07-6.717-9.39-20.384-24.25-27.565-31.6-7.255-7.35-12.353-10.48-15.285-11.81-3.242-1.49-2.161 2.42-3.321 2.97-1.312 0.47-2.702 0.39-4.168-0.23-0.387 0.78-0.774 1.56-1.237 2.42z"/>
    <path id="path49" fill-rule="evenodd" fill="#c080ff" d="m49.031 467c-0.308 2.97 1.003 6.73 5.405 15.49 4.323 8.68 10.347 26.98 20.999 35.59 10.579 8.13 33.515 17.52 42.315 14 8.57-3.91 13.43-25.74 9.26-35.9-4.47-10.41-24.24-19.09-35.129-25.19-11.192-6.41-24.476-10.17-30.574-11.26-6.175-1.1-4.4 3.13-6.329 4.53-2.163 1.1-5.947-0.31-5.947 2.74z"/>
    <path id="path51" fill-rule="evenodd" fill="#c080ff" d="m67.716 444.63c1.158 2.82 3.707 5.94 11.196 11.89 7.489 6.02 20.383 20.57 33.428 23.78 13.13 3.2 26.56 2.66 38.68-2.66 12.13-5.32 9.89-18.54 9.89-18.54-11.04-0.16-22.16-0.39-33.28-0.62 0.77-9.08 1.55-18.15 2.39-27.3l-25.48-0.32c-12.579-1.01-22.385 0.48-28.563 2.04-6.02 1.48-2.547 4.77-3.938 6.72-1.39 1.96-5.481 2.2-4.323 5.01z"/>
    <path id="path53" fill-rule="evenodd" fill="#c080ff" d="m58.22 456.91c0.617 2.82 2.392 6.41 8.88 13.77 6.484 7.19 16.058 23.78 28.719 29.56 12.121 5.48 36.751 8.84 44.401 3.44 7.48-6.1 7.1-27.92 0.61-37.07-7.02-8.92-27.72-12.99-39.99-16.11-12.356-3.37-26.021-4.07-32.352-3.6-6.177 0.39-3.705 4.07-5.096 5.94-1.853 1.57-5.944 1.02-5.172 4.07z"/>
    <path id="path55" fill-rule="evenodd" fill="#c080ff" d="m33.126 470.21c-1.158 2.58-0.849 7.12 1.235 16.35 1.854 9.46 3.01 28.78 10.965 39.89 8.03 10.79 27.64 25.89 37.136 24.79 9.266-1.48 19.538-21.04 18.298-32.07-1.697-11.18-18.22-24.95-27.253-33.71-9.344-9-20.771-16.35-26.56-19.01-5.559-2.58-5.096 1.73-7.26 2.66-2.316 0.32-5.789-1.64-6.561 1.1z"/>
    <path id="path57" fill-rule="evenodd" fill="#c080ff" d="m74.279 426.72c1.544 2.66 4.554 5.32 12.815 10.09 8.338 4.77 5.946 4.3 16.216 8.6 10.27 4.31 20.38 1.57 25.48-0.86l1.85-12.51 0.85-20.02-37.138-0.63c-12.584 0.94-7.798 0-13.664 2.5-5.714 2.43-1.776 5.09-2.857 7.28-1.08 2.11-5.098 2.97-3.552 5.55z"/>
    <path id="path59" fill-rule="evenodd" fill="#6121a1" d="m131.18 419.6c-5.48 0.32-10.96 0.24-16.75 0.63-5.95 0.07-16.525 0-17.991 0.62-1.469 0.63 3.317 1.65 9.261 2.74 5.72 0.86 14.13 1.57 25.25 2.43 0.07-2.12 0.15-4.23 0.23-6.42z"/>
    <path id="path61" fill-rule="evenodd" fill="#6121a1" d="m130.02 434.23c-6.4-0.24-12.5-0.55-17.99-1.25-5.79-0.71-15.436-3.84-15.592-3.06-0.232 0.71 9.032 4.78 14.672 6.73 5.56 1.65 11.65 2.74 18.6 3.29 0.08-1.88 0.16-3.76 0.31-5.71z"/>
    <path id="path63" fill-rule="evenodd" fill="#6121a1" d="m129.1 475.53c-5.02-2.58-14.21-5.32-22.16-8.22-8.185-2.97-27.797-10.32-25.79-8.52 2.008 1.72 28.49 15.64 37.76 19.47 9.18 3.37 14.9 3.29 16.83 2.74 1.54-0.54-1.78-3.36-6.64-5.47z"/>
    <path id="path65" fill-rule="evenodd" fill="#6121a1" d="m80.224 468.25c0.54 1.41 17.681 17.37 24.016 21.59 6.33 3.83 13.51 4.15 13.2 2.74-0.77-1.72-10.65-7.2-16.83-11.27-6.488-4.3-20.927-14.39-20.386-13.06z"/>
    <path id="path67" fill-rule="evenodd" fill="#6121a1" d="m54.127 486.79c5.096 4.61 30.884 28.23 35.672 34.65 4.398 5.87-3.632 5.87-8.649 1.49-5.404-4.54-17.682-21.59-22.234-27.61-4.789-6.26-9.963-12.91-4.789-8.53z"/>
    <path id="path69" fill-rule="evenodd" fill="#6121a1" d="m43.625 490.7c2.396 5.71 16.525 35.59 19.768 40.44 3.087 4.38 1.776-7.43-0.618-13.06-2.624-5.71-10.887-16.51-14.051-20.96-3.243-4.78-7.721-12.05-5.099-6.42z"/>
    <path id="path71" fill-rule="evenodd" fill="#e6d46b" d="m27.412 424.76c-0.848 0.24-0.54 4.46 0.618 5.16 0.926 0.4 5.096-1.01 5.096-1.79-0.308-0.94-4.786-3.68-5.714-3.37z"/>
    <path id="path73" fill-rule="evenodd" fill="#e6d46b" d="m39.072 417.8c-0.851 0.24-0.541 4.46 0.615 5.16 0.928 0.48 5.099-1.17 5.099-1.87-0.31-0.94-4.788-3.76-5.714-3.29z"/>
    <path id="path75" fill-rule="evenodd" fill="#e6d46b" d="m50.189 426.02c-0.851 0.23-0.541 4.45 0.617 5.16 0.929 0.47 5.097-1.18 5.097-1.88-0.31-0.94-4.788-3.75-5.714-3.28z"/>
    <path id="path77" fill-rule="evenodd" fill="#e6d46b" d="m49.571 442.68c-0.848 0.23-0.54 4.45 0.618 5.16 0.926 0.39 5.096-1.02 5.096-1.8-0.307-0.94-4.786-3.68-5.714-3.36z"/>
    <path id="path79" fill-rule="evenodd" fill="#e6d46b" d="m34.902 444.86c-0.849 0.24-0.541 4.46 0.617 5.17 0.926 0.47 5.096-1.18 5.096-1.88-0.307-0.94-4.785-3.75-5.713-3.29z"/>
    <path id="path81" fill-rule="evenodd" fill="#e6d46b" d="m25.946 457.61c-0.928 0.24-0.463 4.46 0.54 5.17 0.849 0.46 4.941-1.18 5.096-1.88-0.31-0.94-4.863-3.75-5.636-3.29z"/>
    <path id="path83" fill-rule="evenodd" fill="#e6d46b" d="m22.935 442.99c-0.928 0.23-0.463 4.46 0.54 5.16 1.004 0.39 5.021-1.02 5.174-1.8-0.309-0.94-4.787-3.67-5.714-3.36z"/>
    <path id="path85" fill-rule="evenodd" fill="#e6d46b" d="m61.616 417.18c-0.851 0.23-0.54 4.46 0.618 5.16 0.926 0.39 5.096-1.02 5.096-1.8-0.309-0.94-4.788-3.68-5.714-3.36z"/>
    <path id="path87" fill-rule="evenodd" fill="#e6d46b" d="m22.935 412.02c-0.928 0.23-0.463 4.45 0.54 5.16 1.004 0.39 5.021-1.02 5.174-1.8-0.309-0.94-4.787-3.68-5.714-3.36z"/>
    <path id="path89" fill-rule="evenodd" d="m78.68 431.49c4.556 3.6 8.956 6.34 13.511 9.07 4.248 2.58 6.564 5.32 12.889 6.42 6.41 0.78 14.52 0.47 24.94-0.94l0.31-3.68c-7.49 2.04-13.89 3.05-18.91 3.05-5.02-0.15-6.57-0.78-11.738-3.05-5.406-2.34-12.509-5.86-21.002-10.87z"/>
    <path id="path91" fill-rule="evenodd" d="m75.976 444.86c1.236-0.15 17.296 2.98 24.944 4.86 7.33 1.72 13.82 3.83 20.07 6.02 6.25 1.87 12.66 3.52 17.14 6.41 3.94 2.66 6.64 6.02 8.11 11.27 1.39 5.39 1.77 15.09 1.16 20.64-0.62 5.01-0.54 8.45-5.1 10.64-5.02 2.19-16.29 2.9-23.7 2.43-7.49-0.55-14.29-2.27-20.696-5.48-6.64-3.44-12.045-6.81-18.297-14-6.719-7.59-18.068-26.05-20.385-29.72-2.239-3.52 1.854 2.11 6.872 8.13 4.863 5.71 13.666 20.18 21.618 26.52 7.72 5.86 16.138 8.6 24.318 10.32 7.8 1.57 17.37 1.65 22.47 0.55 4.79-0.94 5.4-2.35 6.95-6.65 1.47-4.46 2.86-14.55 1.77-20.02-1.38-5.63-1.31-8.92-9.57-13.14-8.49-4.54-30.65-10.02-40.225-13.06-9.65-3.21-18.838-5.72-17.449-5.72z"/>
    <path id="path93" fill-rule="evenodd" d="m46.329 468.56c3.86 1.34 8.263 3.76 13.512 7.59 5.25 3.76 11.427 9.31 17.371 14.86 5.713 5.48 13.127 11.66 16.832 17.37 3.32 5.24 4.711 9.7 4.479 15.17-0.308 5.4-2.704 12.67-5.714 16.97-3.165 3.92-7.952 7.67-12.585 7.67-4.788-0.23-10.191-3.68-15.596-7.35-5.559-3.6-12.973-7.12-17.141-13.92-4.556-7.04-6.563-18.07-8.956-27.38-2.394-9.54-4.402-19.16-5.713-29.18-0.851 5.4-0.851 11.58 0 18.54 0.771 6.96 2.472 15.57 4.788 22.76 1.929 6.65 4.63 12.83 8.723 18.23 4.17 5.55 11.04 10.32 16.754 14.31 5.713 3.76 11.736 7.51 16.83 8.21 4.713 0.24 8.495-1.48 12.277-5.47 3.628-4.38 8.03-12.67 9.65-18.54 1.62-5.63 2.7-10.09-0.62-16.11-3.935-6.73-14.126-15.33-21.308-22.21-7.255-6.81-15.75-14.48-21.309-17.92-5.634-3.67-9.725-4.77-12.274-3.6z"/>
    <path id="path95" fill-rule="evenodd" d="m100.61 528.09c5.48 1.72 10.19 2.42 13.82 1.8 3.47-0.63 5.48-2.11 7.79-5.71 2.24-3.84 3.94-9.94 5.41-17.68l3.01-0.86c-1.78 8.29-3.47 14.55-5.09 19.09-1.86 4.3-3.17 6.25-5.41 7.66-2.47 1.09-5.17 1.09-8.73 0.86-3.55-0.15-7.64-0.55-12.271-1.49 0.464-1.17 0.921-2.42 1.471-3.67z"/>
    <path id="path97" fill-rule="evenodd" d="m145.62 481.31c3.63 0 6.72-1.09 9.26-2.42 2.55-1.57 4.17-3.21 6.03-6.73 1.54-3.83 2.85-8.6 3.63-15.17l-6.03 0.31c0.23 3.91 0.23 7.35-0.61 10.01-1.01 2.43-2.01 4.46-4.18 6.1-2.16 1.73-5.17 3.13-8.72 4.23 0.16 1.17 0.39 2.42 0.62 3.67z"/>
    <path id="path99" fill-rule="evenodd" d="m78.987 549.36c-1.003 1.96-2.006 3.37-3.859 4.54-1.93 1.17-3.86 1.8-6.64 2.19l-3.012-2.19c2.316-0.39 4.325-1.1 6.021-1.8 1.7-0.86 3.012-1.88 4.247-3.05 0.541 0.16 1.236 0.16 1.776 0.31 0.542-0.07 0.927-0.07 1.467 0z"/>
    <path id="path101" fill-rule="evenodd" d="m306.44 92.418c-7.18-1.485-12.5-1.095-17.14 0.547-4.47 1.721-10.34 5.085-9.88 9.775 0.16 4.54 3.86 10.4 11.12 17.6-10.89-2.27-18.3-2.58-23.4-0.94-4.94 1.49-5.86 6.73-6.32 10.64-0.78 3.91-1.16 9.39 2.7 12.52 3.94 2.81 10.42 4.92 20.38 5.47-12.82 2.81-21 5.63-24.86 9.39-3.94 3.59 0.93 7.97 1.78 11.88 0.69 3.68-1.78 9.24 3 10.02 4.72 0.39 12.44-1.57 24.32-6.73-9.41 7.43-15.44 13.61-17.75 18.85-2.55 5.08-1.85 10.95 3.32 11.89 5.32 0.86 14.13-1.49 27.64-6.73 1.62 2.5 2.01 6.18 1.16 12.2-0.93 5.56-3.02 15.96-6.57 22.45-3.7 6.57-8.72 11.74-15.05 16.43 8.03-5.48 13.74-8.21 16.83-8.21 3.01-0.16-0.47 7.19 1.77 8.21s5.95 0.31 11.43-2.11c7.8-11.27 13.2-24.95 16.22-41.38 3-16.5 4.78-38.56 1.46-57.1-3.62-18.85-10.73-36.76-22.16-54.672z"/>
    <path id="path108" fill-rule="evenodd" fill="url(#XMLID_5_)" d="m322.35 198.17c1.31-8.53 2.01-16.74 2.09-26.13-0.16-9.46-0.85-19-2.4-28.94-1.62-10.16-5.02-21.98-7.25-30.03-2.48-8.06-4.87-13.846-7.19-17.68-6.02-0.469-10.42-0.156-13.82 0.939-3.55 0.861-6.64 0.782-6.25 5.161 0.38 4.23 3.17 11.11 8.65 20.65-8.27-0.86-15.06-0.55-20.08 0.63-5.25 1.17-9.34 4.22-10.8 6.72-1.63 2.35-2.09 4.77 1.85 7.9 3.93 3.05 10.73 6.18 21.23 10.01-1.08 1.8-3.86 3.45-8.03 5.79-4.48 2.12-15.05 4.23-17.45 7.28-2.55 2.97 2.32 7.11 3.01 10.01 0.62 2.74-3.63 5.79 0.93 5.79 4.48-0.24 12.66-2.66 25.48-7.28-0.93 3.52-2.32 6.97-4.48 10.33-2.4 3.2-6.8 5.94-8.42 9.38-1.93 3.45-2.24 8.3-1.23 10.02 1 1.09 3.7 0.07 8.1-1.8 4.48-1.88 10.19-5.01 17.99-9.39-1.54 7.35-0.92 11.81 2.16 13.69 3.09 1.72 8.11 0.7 15.91-3.05z"/>
    <path id="path110" fill-rule="evenodd" fill="#ad4200" d="m305.83 204.5c1.16 1.1 2.85 1.41 5.71 1.26 2.78-0.24 6.18-1.26 10.5-2.74 0 4.77-1.31 10.32-3.32 17.28-2.08 6.81-5.48 14.71-9.57 23.7-3.63 0.86-5.64 0.78-6.64-0.54-1.01-1.41 1.69-6.26 0.92-7.36-1.08-1.33-3.08-1.01-6.63 0.32 2.77-5.87 4.78-11.42 6.32-16.66 1.47-5.4 2.48-10.48 2.71-15.26z"/>
    <path id="path112" fill-rule="evenodd" d="m212.48 227.5c0.77 0.39 2.39 1.1 4.86 2.74 2.48 1.33 7.65 3.12 9.58 6.33 1.7 3.29 3.4 8.45 0.62 12.75-2.86 3.91-8.88 7.67-17.76 11.27 6.56 3.2 10.58 6.96 11.74 11.89 1.23 4.69 0.22 15.17-4.48 16.97-5.1 1.64-12.9-0.47-24.63-6.65 2.47 12.52 2.47 21.12 0 26.12-2.86 4.93-8.65 5.95-15.29 3.06-6.72-3.45-14.83-10.64-24.63-22.53-0.85 7.82-0.85 14.94 0 22.53 0.85 7.27 2.55 14.08 5.09 21.58 2.48 7.44 5.79 15.02 9.97 23.08-7.19-4.46-11.9-5.4-14.44-3.68-2.55 1.64-2.86 6.81-0.93 14.63l-21.85-1.57 4.17-123.03 71.11-0.63 1.47-14.62c1.77-0.08 3.55-0.16 5.4-0.24z"/>
    <path id="path119" fill-rule="evenodd" fill="url(#XMLID_6_)" d="m211.63 230.47c4.56 1.8 7.65 4.15 9.27 7.04 1.46 2.58 2.85 6.1 0 9.7-3.24 3.52-9.03 7.98-18.3 12.52 7.88 5.08 12.58 9.62 14.13 13.92 1.39 4.3-0.69 10.17-5.1 11.26-4.71 0.78-11.73-1.25-21.92-6.41 0.3 8.99-0.47 15.8-1.47 20.73-1.24 4.61-1.86 9.23-5.72 8.76-4.09-0.78-13.28-6.65-18.29-10.95-5.25-4.15-9.35-8.69-12.59-13.61-0.93 6.49-2.62 10.63-5.4 13.37-2.94 2.43-6.64 3.13-11.43 1.8l0.93-54.12h72.57c1.09-4.62 2.17-9.32 3.32-14.01z"/>
    <path id="path121" fill-rule="evenodd" fill="#ad4200" d="m147.7 299.77c0.39 5.17 0.7 9.93 1.24 14.63 0.46 4.46-0.23 6.8 1.77 12.75 1.86 5.71 4.95 13.22 9.58 22.21-4.09 0.24-6.8 0.63-8.96 1.49-2.08 0.62-2.7 0.94-3.32 3.36-0.85 2.43-1.54 6.18-1.77 11.26l-12.9-1.25 1.16-62.26c2.78 1.49 5.18 2.19 7.49 1.8 2.08-0.47 4.09-1.8 5.71-3.99z"/>
    <path id="path123" fill-rule="evenodd" d="m212.25 204.74c6.8-4.69 12.59-8.14 17.68-10.33 4.94-2.26 8.73-2.89 12.28-3.05 3.32-0.31 1.54 2.82 8.11 1.26 6.4-1.8 16.13-5.87 30.03-11.9l-4.86 9.47c-5.56 3.21-11.05 5.32-16.45 6.33-5.48 0.71-11.89-1.09-16.21-0.86-4.56 0.32-5.87 0.24-10.82 2.74-5.17 2.5-11.57 5.95-19.53 11.5-0.07-1.72-0.15-3.44-0.23-5.16z"/>
    <path id="path125" fill-rule="evenodd" d="m303.36 417.18c1.69-1.02 3.86-1.72 6.17-1.8 2.32-0.32 5.41-0.71 8.03 0.62 2.4 1.18 5.79 3.84 6.64 6.5 0.54 2.42-0.77 6.02-2.16 8.05-1.54 1.8-4.01 2.82-6.17 3.05-2.4-0.08-4.87-0.94-7.42-2.89-2.62-2.03-5.33-4.93-8.1-8.68 1-1.57 2-3.21 3.01-4.85z"/>
    <path id="path127" fill-rule="evenodd" fill="#ff0080" d="m305.06 417.49c3.08-0.94 5.94-1.25 8.26-0.94 2.31 0.16 4.4 0.94 5.94 2.35 1.47 1.33 3.63 3.2 3.55 5.63-0.07 1.88-2.39 5.63-4.01 6.73-1.7 1.01-4.32 0.94-6.41 0.08-2.39-1.02-5.87-4.23-7.49-5.72-1.7-1.64-2.78-2.81-2.93-3.83 1-1.41 2.01-2.81 3.09-4.3z"/>
    <path id="path129" fill-rule="evenodd" d="m294.09 412.25c-1.23-1.57-2.31-3.36-2.93-5.71-0.93-2.43-1.54-5.55-1-8.14 0.46-2.73 2.85-6.64 5.09-7.82 2.24-1.48 5.87-0.39 8.18 0.55 1.94 1.1 3.63 3.05 4.17 5.55 0.39 2.12-0.07 4.85-1.38 7.9-1.48 2.9-3.64 6.26-6.8 9.78-1.78-0.7-3.55-1.41-5.33-2.11z"/>
    <path id="path131" fill-rule="evenodd" fill="#ff0080" d="m294.09 410.53c-1.46-3.05-2.31-5.63-2.55-8.06-0.23-2.35 0.16-4.53 1.16-6.26 0.77-1.87 2.78-4.45 4.79-4.69 2.16-0.47 5.48 1.02 7.25 2.66 1.24 1.33 1.78 3.83 1.32 6.34-0.78 2.58-2.7 6.25-4.02 8.6-1.23 2.11-2.39 3.13-3.16 3.68-1.54-0.71-3.17-1.49-4.79-2.27z"/>
    <path id="path133" fill-rule="evenodd" d="m293.63 416.78c-1.78 1.18-3.55 1.73-5.95 2.27-2.54 0.32-5.56 0.94-8.1 0.08-2.55-1.09-6.41-3.67-7.1-5.94-0.86-2.58-0.08-6.34 1.46-8.21 1.16-2.19 3.55-3.37 5.94-3.52 2.17-0.32 4.79 0.54 7.57 2.26 2.63 1.65 5.56 4.3 8.8 7.98-0.85 1.64-1.7 3.36-2.62 5.08z"/>
    <path id="path135" fill-rule="evenodd" fill="#ff0080" d="m291.93 416.63c-3.24 0.94-5.87 1.56-8.18 1.56-2.4-0.07-4.41-0.78-6.03-1.8-1.69-1.33-4.01-3.2-4.01-5.31-0.08-2.27 1.54-5.71 3.4-7.04 1.46-1.41 3.85-1.41 6.33-0.63 2.39 0.86 5.86 3.36 8.03 5.09 1.93 1.24 2.78 2.73 3.16 3.59-0.85 1.49-1.77 2.97-2.7 4.54z"/>
    <path id="path137" fill-rule="evenodd" d="m294.86 422.65c0.08 1.96-0.15 4.07-1 6.34-1 2.19-1.93 5.16-4.02 7.12-2.31 1.64-6.17 3.44-8.64 3.28-2.86-0.47-5.17-3.6-6.33-5.48-1.09-2.34-1.09-4.77 0-6.96 0.92-2.19 2.85-3.91 5.79-5.47 2.86-1.57 6.48-2.82 11.19-3.76 1.01 1.65 2.01 3.29 3.01 4.93z"/>
    <path id="path139" fill-rule="evenodd" fill="#ff0080" d="m293.86 423.98c-0.62 3.21-1.62 5.87-2.7 7.98-1.24 2.11-2.78 3.36-4.64 4.38-2.23 0.86-4.63 1.56-6.56 0.86-2.01-1.17-4.01-4.46-4.24-6.49-0.47-2.27 0.69-4.23 2.62-5.87 1.78-2.03 5.95-3.52 8.34-4.46 2.24-0.86 3.7-1.4 4.71-1.01 0.77 1.48 1.62 3.05 2.47 4.61z"/>
    <path id="path141" fill-rule="evenodd" d="m300.27 422.18c1.85 1.02 3.39 2.11 4.94 4.15 1.55 1.8 3.4 4.14 4.09 7.04 0.23 2.66 0 7.04-1.54 9.23-1.7 1.95-5.48 2.89-7.8 2.81-2.47-0.39-4.56-1.56-5.95-3.52-1.38-1.95-2-4.54-1.85-7.74-0.08-3.29 1.01-7.2 2.39-11.73 1.86-0.08 3.79-0.16 5.72-0.24z"/>
    <path id="path143" fill-rule="evenodd" fill="#ff0080" d="m300.96 423.75c2.63 2.19 4.18 4.22 5.48 6.41 1.09 2.19 1.55 3.99 1.4 6.26-0.24 2.03-1.08 5-2.56 6.18-1.92 1.02-5.78 1.17-7.72 0.47-2-0.71-3.24-3.05-3.7-5.24-0.62-2.74 0-7.12 0.39-9.55 0.3-2.5 0.69-3.83 1.46-4.61 1.7 0 3.48 0 5.25 0.08z"/>
    <path id="path145" fill-rule="evenodd" d="m300.65 413.42c-0.15-2.03 0.39-4.14 1.32-6.33 0.92-2.58 1.85-5.09 4.25-6.89 2.16-1.8 6.17-3.36 8.8-2.89 2.31 0.31 5.01 3.52 6.02 5.71 0.77 2.03 0.69 4.85-0.24 6.96-1.15 2.04-3.16 3.68-6.02 5.24-2.93 1.49-6.72 2.35-11.35 3.21-0.92-1.65-1.85-3.29-2.78-5.01z"/>
    <path id="path147" fill-rule="evenodd" fill="#ff0080" d="m301.73 412.09c0.62-3.36 1.63-5.86 3.01-7.82 1.24-2.03 2.94-3.44 4.79-4.22 1.93-0.94 4.64-1.73 6.64-0.55 1.86 1.02 3.48 4.46 3.94 6.73 0.08 2.11-1.15 3.91-2.86 5.71-2.08 1.48-6.41 3.28-8.49 4.14-2.31 0.78-3.78 0.94-4.71 0.78-0.77-1.56-1.54-3.12-2.32-4.77z"/>
    <path id="path149" fill-rule="evenodd" d="m297.16 410.55c4.56 0 8.26 3.12 8.26 6.97 0 3.84-3.7 6.96-8.26 6.96-4.57 0-8.27-3.12-8.27-6.96 0-3.85 3.7-6.97 8.27-6.97"/>
    <path id="path151" fill-rule="evenodd" fill="#ff0" d="m297.41 411.52c3.62 0 6.56 2.45 6.56 5.48 0 3.02-2.94 5.47-6.56 5.47s-6.56-2.45-6.56-5.47c0-3.03 2.94-5.48 6.56-5.48"/>
    <path id="path153" fill-rule="evenodd" d="m259.43 475.06c1.77-1.02 3.7-1.72 6.1-1.8 2.31-0.31 5.4-0.71 8.03 0.62 2.39 1.34 5.78 3.84 6.64 6.58 0.61 2.42-0.78 6.02-2.09 8.05-1.54 1.64-4.01 3.05-6.25 3.05-2.4-0.23-4.87-0.94-7.42-2.97-2.62-2.03-5.32-4.93-8.1-8.68 1-1.57 2.01-3.21 3.09-4.85z"/>
    <path id="path155" fill-rule="evenodd" fill="#ff0080" d="m261.05 475.37c3.31-0.94 5.71-1.25 8.33-0.94 2.4 0.31 4.25 1.02 5.87 2.43 1.62 1.25 3.4 3.44 3.55 5.63-0.23 1.95-2.23 5.47-3.93 6.65-1.7 1.01-4.33 0.93-6.41 0.07-2.55-1.01-5.87-4.22-7.57-5.71-1.77-1.64-2.62-2.81-2.85-3.83 1-1.41 2-2.81 3.01-4.3z"/>
    <path id="path157" fill-rule="evenodd" d="m250.16 470.21c-1.24-1.49-2.32-3.52-2.93-5.79-0.93-2.5-1.55-5.4-1.01-8.06 0.62-3.05 2.7-6.49 5.02-7.9 2.16-1.4 6.02-0.62 8.26 0.55 2.01 1.02 3.48 3.21 4.09 5.63 0.39 2.35-0.07 4.77-1.39 7.9-1.46 2.9-3.62 6.26-6.79 9.78-1.7-0.7-3.47-1.41-5.25-2.11z"/>
    <path id="path159" fill-rule="evenodd" fill="#ff0080" d="m250.16 468.49c-1.47-3.05-2.32-5.63-2.55-8.06-0.38-2.42 0.08-4.54 1.08-6.34 0.77-1.8 2.78-4.53 4.79-4.61 2.16-0.47 5.48 1.02 7.26 2.66 1.31 1.48 1.77 3.68 1.39 6.26-0.7 2.5-2.86 6.41-4.09 8.68-1.24 2.11-2.4 3.21-3.17 3.6-1.54-0.71-3.09-1.41-4.71-2.19z"/>
    <path id="path161" fill-rule="evenodd" d="m249.62 474.67c-1.78 1.09-3.55 1.87-5.94 2.34-2.63 0.32-5.41 0.94-8.03 0.08-2.79-1.09-6.26-3.67-7.18-5.94-0.85-2.66-0.08-6.11 1.46-8.22 1.16-2.03 3.55-3.52 5.95-3.59 2.39-0.24 4.55 0.54 7.64 2.34 2.62 1.8 5.56 4.15 8.8 7.9-0.85 1.65-1.77 3.37-2.7 5.09z"/>
    <path id="path163" fill-rule="evenodd" fill="#ff0080" d="m248 474.51c-3.01 1.09-5.94 1.64-8.19 1.64-2.31-0.08-4.55-0.7-6.1-1.87-1.7-1.33-4.01-3.21-4.01-5.32-0.08-2.27 1.54-5.71 3.39-7.04 1.39-1.41 4.02-1.41 6.41-0.63 2.47 0.86 5.72 3.37 7.96 5.09 1.85 1.25 2.93 2.73 3.24 3.6-0.85 1.48-1.78 2.97-2.7 4.53z"/>
    <path id="path165" fill-rule="evenodd" d="m250.93 480.53c-0.07 1.88-0.15 4.23-1.08 6.42-0.77 2.26-2.08 5-3.94 7.04-2.23 1.64-6.33 3.44-8.72 3.28-2.63-0.55-5.41-3.44-6.26-5.4-1-2.27-1.23-5-0.07-7.04 1.08-2.19 2.62-3.91 5.79-5.47 2.85-1.49 6.49-2.82 11.19-3.68 1.01 1.57 2.01 3.21 3.09 4.85z"/>
    <path id="path167" fill-rule="evenodd" fill="#ff0080" d="m249.93 481.94c-0.62 3.21-1.55 5.87-2.78 7.98-1.24 2.11-2.78 3.36-4.63 4.38-2.24 0.86-4.64 1.56-6.57 0.86-2-1.17-4.01-4.46-4.24-6.57-0.31-2.27 0.69-4.22 2.7-5.87 1.93-2.03 5.79-3.52 8.26-4.46 2.01-0.86 3.78-1.4 4.71-1.01 0.85 1.56 1.7 3.13 2.55 4.69z"/>
    <path id="path169" fill-rule="evenodd" d="m256.26 480.14c1.85 0.86 3.4 2.11 4.94 4.07 1.54 1.8 3.4 4.15 4.1 7.04 0.22 2.66 0 7.04-1.55 9.23-1.7 1.95-5.56 2.89-7.72 2.81-2.4-0.23-4.79-1.48-6.02-3.44-1.47-2.03-1.78-4.53-1.78-7.82-0.07-3.52 1.01-7.04 2.4-11.73 1.85 0 3.7-0.08 5.63-0.16z"/>
    <path id="path171" fill-rule="evenodd" fill="#ff0080" d="m256.96 481.7c2.39 2.04 4.32 4.15 5.48 6.34 1.15 2.19 1.54 3.99 1.46 6.26-0.23 1.8-1.08 5.16-2.54 6.18-1.94 0.94-5.8 1.4-7.73 0.55-2.01-1.02-3.24-2.9-3.7-5.32-0.54-2.74-0.15-7.12 0.31-9.54 0.23-2.51 0.85-3.84 1.54-4.62 1.7 0 3.4 0.08 5.18 0.15z"/>
    <path id="path173" fill-rule="evenodd" d="m256.64 471.38c-0.15-2.03 0.39-4.14 1.32-6.34 0.93-2.5 1.85-5.24 4.24-6.96 2.09-1.79 6.34-3.36 8.88-2.89 2.32 0.31 5.02 3.52 6.03 5.71 0.92 2.03 0.54 4.85-0.31 6.96-1.24 2.04-2.94 3.68-5.95 5.24-2.93 1.41-6.72 2.5-11.35 3.29-0.92-1.65-1.85-3.29-2.86-5.01z"/>
    <path id="path175" fill-rule="evenodd" fill="#ff0080" d="m257.73 470.05c0.77-3.28 1.7-6.02 3.09-7.9 1.23-2.03 2.93-3.52 4.78-4.14 2.01-0.94 4.48-1.65 6.56-0.63 1.78 1.02 3.71 4.46 4.02 6.73 0 2.03-1.08 4.07-2.94 5.79-2.08 1.56-6.4 3.12-8.49 4.06-2.31 0.78-3.78 0.94-4.71 0.78-0.77-1.56-1.54-3.12-2.31-4.69z"/>
    <path id="path177" fill-rule="evenodd" d="m253.4 468.44c4.61 0 8.34 3.12 8.34 6.96s-3.73 6.96-8.34 6.96c-4.6 0-8.34-3.12-8.34-6.96s3.74-6.96 8.34-6.96"/>
    <path id="path179" fill-rule="evenodd" fill="#ff0" d="m253.15 469.4c3.57 0 6.48 2.45 6.48 5.47 0 3.03-2.91 5.48-6.48 5.48-3.59 0-6.49-2.45-6.49-5.48 0-3.02 2.9-5.47 6.49-5.47"/>
    <path id="path181" fill-rule="evenodd" d="m242.9 540.76c1.7-1.09 3.86-1.56 6.18-1.72 2.32-0.24 5.4-0.86 8.03 0.55 2.39 1.09 5.79 3.99 6.64 6.57 0.54 2.42-0.77 6.02-2.16 8.05-1.55 1.65-4.02 3.05-6.26 3.05-2.47-0.23-4.71-0.93-7.33-2.97-2.63-2.03-5.25-4.93-8.19-8.68 1.01-1.57 2.01-3.21 3.09-4.85z"/>
    <path id="path183" fill-rule="evenodd" fill="#ff0080" d="m244.6 541.07c3.09-0.78 5.95-1.17 8.26-0.86 2.4 0.16 4.25 0.94 5.87 2.35 1.55 1.33 3.55 3.21 3.63 5.63-0.08 1.88-2.39 5.63-4.01 6.73-1.71 1.02-4.33 0.94-6.41 0.08-2.4-1.02-5.87-4.23-7.49-5.71-1.7-1.57-2.78-2.98-2.93-3.91 1-1.41 2-2.82 3.08-4.31z"/>
    <path id="path185" fill-rule="evenodd" d="m233.64 535.91c-1.24-1.49-2.32-3.52-2.94-5.79-0.92-2.5-1.54-5.39-1-8.06 0.46-3.05 2.85-6.49 5.1-7.89 2.23-1.41 5.86-0.63 8.18 0.54 1.93 1.02 3.63 3.21 4.17 5.63 0.39 2.35-0.08 4.78-1.39 7.9-1.47 2.9-3.63 6.26-6.8 9.78-1.77-0.7-3.55-1.4-5.32-2.11z"/>
    <path id="path187" fill-rule="evenodd" fill="#ff0080" d="m233.64 534.19c-1.47-3.05-2.32-5.63-2.55-8.06-0.23-2.42 0.15-4.53 1.16-6.33 0.85-1.8 2.62-4.54 4.71-4.62 2.08-0.47 5.64 1.02 7.33 2.66 1.24 1.33 1.78 3.83 1.31 6.34-0.54 2.58-2.85 6.26-4.01 8.6-1.23 1.88-2.32 3.28-3.24 3.6-1.55-0.7-3.09-1.41-4.71-2.19z"/>
    <path id="path189" fill-rule="evenodd" d="m233.18 540.45c-1.71 1.17-3.71 1.72-6.03 2.27-2.63 0.31-5.4 0.94-8.03 0.07-2.78-1.09-6.25-3.67-7.18-5.94-0.92-2.66 0.08-6.1 1.55-8.21 1.15-2.04 3.55-3.52 5.94-3.6 2.16-0.24 4.79 0.54 7.57 2.34 2.62 1.8 5.56 4.15 8.8 7.9-0.85 1.72-1.7 3.45-2.62 5.17z"/>
    <path id="path191" fill-rule="evenodd" fill="#ff0080" d="m231.47 540.21c-3 1.1-5.94 1.65-8.18 1.65-2.31-0.08-4.55-0.71-6.1-1.88-1.7-1.33-4.01-3.29-4.01-5.24-0.16-2.27 1.69-5.71 3.47-7.04 1.47-1.41 3.86-1.41 6.33-0.63 2.47 0.55 5.72 3.52 7.95 5.01 1.86 1.25 2.94 2.74 3.25 3.6-0.85 1.48-1.78 2.97-2.71 4.53z"/>
    <path id="path193" fill-rule="evenodd" d="m234.41 546.24c-0.08 1.87-0.15 4.22-1.08 6.41-0.77 2.19-2.09 5.16-3.94 7.12-2.24 1.64-6.33 3.51-8.72 3.2-2.63-0.55-5.41-3.44-6.26-5.39-1.08-2.27-1.08-5.01 0-7.04 0.93-2.19 2.86-3.92 5.79-5.48 2.86-1.48 6.49-2.81 11.2-3.67 1 1.56 2 3.2 3.01 4.85z"/>
    <path id="path195" fill-rule="evenodd" fill="#ff0080" d="m233.4 547.64c-0.61 3.21-1.62 5.87-2.7 7.98-1.23 2.11-2.77 3.36-4.63 4.38-2.24 0.86-4.63 1.56-6.56 0.86-2.09-1.17-3.94-4.46-4.33-6.57-0.31-2.27 0.7-4.22 2.71-5.86 1.77-2.04 5.94-3.53 8.34-4.46 2.24-0.86 3.7-1.41 4.7-1.02 0.78 1.56 1.63 3.13 2.47 4.69z"/>
    <path id="path197" fill-rule="evenodd" d="m239.81 545.84c1.85 0.86 3.4 2.12 4.95 4.07 1.54 1.8 3.39 4.15 4.09 7.04 0.23 2.66 0 7.04-1.55 9.23-1.7 1.96-5.48 2.89-7.8 2.82-2.47-0.24-4.55-1.49-5.94-3.44-1.39-2.04-2.01-4.54-1.85-7.83-0.08-3.2 1-7.19 2.39-11.65 1.85-0.08 3.78-0.16 5.71-0.24z"/>
    <path id="path199" fill-rule="evenodd" fill="#ff0080" d="m240.51 547.41c2.47 2.03 4.17 4.14 5.4 6.33 1.16 2.19 1.55 3.99 1.47 6.26-0.23 1.8-1.08 5.16-2.55 6.18-1.93 0.94-5.79 1.41-7.72 0.55-2.01-1.02-3.24-2.89-3.71-5.32-0.61-2.74 0-7.12 0.39-9.54 0.31-2.51 0.69-3.84 1.47-4.62 1.7 0 3.47 0.08 5.25 0.16z"/>
    <path id="path201" fill-rule="evenodd" d="m240.2 537.08c-0.16-2.03 0.38-4.14 1.31-6.33 0.93-2.51 1.86-5.24 4.25-6.96 2.16-1.8 6.18-3.37 8.8-2.9 2.32 0.31 5.02 3.52 6.02 5.71 0.78 2.04 0.7 4.85-0.23 6.96-1.16 2.04-3.17 3.68-6.02 5.24-2.93 1.41-6.72 2.51-11.35 3.29-0.92-1.64-1.86-3.29-2.78-5.01z"/>
    <path id="path203" fill-rule="evenodd" fill="#ff0080" d="m241.2 535.75c0.78-3.28 1.7-6.02 3.09-7.9 1.24-2.03 2.94-3.52 4.79-4.14 2.01-0.94 4.48-1.72 6.56-0.55 1.78 1.1 3.71 4.3 4.02 6.65 0.31 2.03-1.24 4.07-2.86 5.79-2.09 1.56-6.41 3.13-8.49 4.07-2.24 0.78-3.94 0.93-4.79 0.78-0.77-1.57-1.54-3.13-2.32-4.7z"/>
    <path id="path205" fill-rule="evenodd" d="m236.93 534.14c4.61 0 8.34 3.12 8.34 6.96s-3.73 6.96-8.34 6.96c-4.6 0-8.34-3.12-8.34-6.96s3.74-6.96 8.34-6.96"/>
    <path id="path207" fill-rule="evenodd" fill="#ff0" d="m236.93 535.1c3.63 0 6.57 2.46 6.57 5.48s-2.94 5.47-6.57 5.47c-3.62 0-6.56-2.45-6.56-5.47s2.94-5.48 6.56-5.48"/>
  </g>
  <metadata>
    <rdf:RDF>
      <cc:Work>
        <dc:format>image/svg+xml</dc:format>
        <dc:type rdf:resource="http://purl.org/dc/dcmitype/StillImage"/>
        <cc:license rdf:resource="http://creativecommons.org/licenses/publicdomain/"/>
        <dc:publisher>
          <cc:Agent rdf:about="http://openclipart.org/">
            <dc:title>Openclipart</dc:title>
          </cc:Agent>
        </dc:publisher>
        <dc:title>Creation Days Numbers</dc:title>
        <dc:date>2007-11-13T16:32:45</dc:date>
        <dc:description>The days of creation - completed originally to fulfill a request on the OpenClipart wiki.</dc:description>
        <dc:source>http://openclipart.org/detail/8222/creation-days-numbers-by-gerald_g-8222</dc:source>
        <dc:creator>
          <cc:Agent>
            <dc:title>Gerald_G</dc:title>
          </cc:Agent>
        </dc:creator>
        <dc:subject>
          <rdf:Bag>
            <rdf:li>adam</rdf:li>
            <rdf:li>cartoon</rdf:li>
            <rdf:li>clip art</rdf:li>
            <rdf:li>clipart</rdf:li>
            <rdf:li>creation</rdf:li>
            <rdf:li>eve</rdf:li>
            <rdf:li>god</rdf:li>
            <rdf:li>number</rdf:li>
            <rdf:li>religion</rdf:li>
          </rdf:Bag>
        </dc:subject>
      </cc:Work>
      <cc:License rdf:about="http://creativecommons.org/licenses/publicdomain/">
        <cc:permits rdf:resource="http://creativecommons.org/ns#Reproduction"/>
        <cc:permits rdf:resource="http://creativecommons.org/ns#Distribution"/>
        <cc:permits rdf:resource="http://creativecommons.org/ns#DerivativeWorks"/>
      </cc:License>
    </rdf:RDF>
  </metadata>
</svg>
